<svg width="1920" height="212" viewBox="0 0 1920 212" fill="none" xmlns="http://www.w3.org/2000/svg">
<path d="M0 201.85C190.222 215.85 669.867 222.25 1066.67 135.85C1463.47 49.4497 1800.89 143.85 1920 201.85" stroke="#EAEBD5" stroke-width="2"/>
<path d="M0 195.183C190.222 209.183 669.867 215.583 1066.67 129.183C1463.47 42.783 1800.89 137.183 1920 195.183" stroke="#EAEBD5" stroke-width="2"/>
<path d="M0 188.516C190.222 202.516 669.867 208.916 1066.67 122.516C1463.47 36.1164 1800.89 130.516 1920 188.516" stroke="#EAEBD5" stroke-width="2"/>
<path d="M0 181.85C190.222 195.85 669.867 202.25 1066.67 115.85C1463.47 29.4497 1800.89 123.85 1920 181.85" stroke="#EAEBD5" stroke-width="2"/>
<path d="M0 175.183C190.222 189.183 669.867 195.583 1066.67 109.183C1463.47 22.783 1800.89 117.183 1920 175.183" stroke="#EAEBD5" stroke-width="2"/>
<path d="M0 168.516C190.222 182.516 669.867 188.916 1066.67 102.516C1463.47 16.1164 1800.89 110.516 1920 168.516" stroke="#EAEBD5" stroke-width="2"/>
<path d="M0 161.85C190.222 175.85 669.867 182.25 1066.67 95.8497C1463.47 9.4497 1800.89 103.85 1920 161.85" stroke="#EAEBD5" stroke-width="2"/>
<path d="M0 155.183C190.222 169.183 669.867 175.583 1066.67 89.183C1463.47 2.78301 1800.89 97.183 1920 155.183" stroke="#EAEBD5" stroke-width="2"/>
<path d="M0 148.516C190.222 162.516 669.867 168.916 1066.67 82.5164C1463.47 -3.88361 1800.89 90.5164 1920 148.516" stroke="#EAEBD5" stroke-width="2"/>
<path d="M0 141.85C190.222 155.85 669.867 162.25 1066.67 75.8497C1463.47 -10.5503 1800.89 83.8497 1920 141.85" stroke="#EAEBD5" stroke-width="2"/>
<path d="M0 135.183C190.222 149.183 669.867 155.583 1066.67 69.183C1463.47 -17.217 1800.89 77.183 1920 135.183" stroke="#EAEBD5" stroke-width="2"/>
<path d="M0 128.516C190.222 142.516 669.867 148.916 1066.67 62.5164C1463.47 -23.8836 1800.89 70.5164 1920 128.516" stroke="#EAEBD5" stroke-width="2"/>
<path d="M0 121.85C190.222 135.85 669.867 142.25 1066.67 55.8497C1463.47 -30.5503 1800.89 63.8497 1920 121.85" stroke="#EAEBD5" stroke-width="2"/>
<path d="M0 115.183C190.222 129.183 669.867 135.583 1066.67 49.183C1463.47 -37.217 1800.89 57.183 1920 115.183" stroke="#EAEBD5" stroke-width="2"/>
<path d="M0 108.516C190.222 122.516 669.867 128.916 1066.67 42.5164C1463.47 -43.8836 1800.89 50.5164 1920 108.516" stroke="#EAEBD5" stroke-width="2"/>
<path d="M0 101.85C190.222 115.85 669.867 122.25 1066.67 35.8497C1463.47 -50.5503 1800.89 43.8497 1920 101.85" stroke="#EAEBD5" stroke-width="2"/>
</svg>
